<svg id="visual" viewBox="0 0 900 600" width="900" height="600" xmlns="http://www.w3.org/2000/svg" xmlns:xlink="http://www.w3.org/1999/xlink" version="1.1"><rect x="0" y="0" width="900" height="600" fill="#002233"></rect><path d="M0 497L21.5 491.7C43 486.3 86 475.7 128.8 460.7C171.7 445.7 214.3 426.3 257.2 428.2C300 430 343 453 385.8 451.8C428.7 450.7 471.3 425.3 514.2 411C557 396.7 600 393.3 642.8 397.2C685.7 401 728.3 412 771.2 422.5C814 433 857 443 878.5 448L900 453L900 601L878.5 601C857 601 814 601 771.2 601C728.3 601 685.7 601 642.8 601C600 601 557 601 514.2 601C471.3 601 428.7 601 385.8 601C343 601 300 601 257.2 601C214.3 601 171.7 601 128.8 601C86 601 43 601 21.5 601L0 601Z" fill="#0066FF" stroke-linecap="round" stroke-linejoin="miter"></path></svg>