<svg id="visual" viewBox="0 0 900 600" width="900" height="600" xmlns="http://www.w3.org/2000/svg" xmlns:xlink="http://www.w3.org/1999/xlink" version="1.1"><rect x="0" y="0" width="900" height="600" fill="#010033"></rect><path d="M0 383L21.5 387.8C43 392.7 86 402.3 128.8 416.8C171.7 431.3 214.3 450.7 257.2 452.2C300 453.7 343 437.3 385.8 429.7C428.7 422 471.3 423 514.2 422.5C557 422 600 420 642.8 422.3C685.7 424.7 728.3 431.3 771.2 436.2C814 441 857 444 878.5 445.5L900 447L900 601L878.5 601C857 601 814 601 771.2 601C728.3 601 685.7 601 642.8 601C600 601 557 601 514.2 601C471.3 601 428.7 601 385.8 601C343 601 300 601 257.2 601C214.3 601 171.7 601 128.8 601C86 601 43 601 21.5 601L0 601Z" fill="#0066FF" stroke-linecap="round" stroke-linejoin="miter"></path></svg>