<svg xmlns="http://www.w3.org/2000/svg"  viewBox="0 0 24 24" width="48px" height="48px" baseProfile="basic"><linearGradient id="Y6xGfEZxwcO24_1tSVfnia" x1="3.879" x2="20.121" y1="3.879" y2="20.121" gradientUnits="userSpaceOnUse"><stop offset="0" stop-color="#fff" stop-opacity=".6"/><stop offset="1" stop-color="#fff" stop-opacity=".3"/></linearGradient><path fill="url(#Y6xGfEZxwcO24_1tSVfnia)" d="M18,21H6c-1.657,0-3-1.343-3-3V6c0-1.657,1.343-3,3-3h12c1.657,0,3,1.343,3,3v12 C21,19.657,19.657,21,18,21z"/><linearGradient id="Y6xGfEZxwcO24_1tSVfnib" x1="3.879" x2="20.121" y1="3.879" y2="20.121" gradientUnits="userSpaceOnUse"><stop offset="0" stop-color="#fff" stop-opacity=".6"/><stop offset=".493" stop-color="#fff" stop-opacity="0"/><stop offset=".997" stop-color="#fff" stop-opacity=".3"/></linearGradient><path fill="url(#Y6xGfEZxwcO24_1tSVfnib)" d="M18,3.5c1.378,0,2.5,1.122,2.5,2.5v12 c0,1.378-1.122,2.5-2.5,2.5H6c-1.378,0-2.5-1.122-2.5-2.5V6c0-1.378,1.122-2.5,2.5-2.5H18 M18,3H6C4.343,3,3,4.343,3,6v12 c0,1.657,1.343,3,3,3h12c1.657,0,3-1.343,3-3V6C21,4.343,19.657,3,18,3L18,3z"/><linearGradient id="Y6xGfEZxwcO24_1tSVfnic" x1="7.791" x2="16.209" y1="7.79" y2="16.209" gradientUnits="userSpaceOnUse"><stop offset="0" stop-color="#fff" stop-opacity=".7"/><stop offset=".519" stop-color="#fff" stop-opacity=".45"/><stop offset="1" stop-color="#fff" stop-opacity=".55"/></linearGradient><path fill="url(#Y6xGfEZxwcO24_1tSVfnic)" d="M13.403,12l2.812-2.812	c0.384-0.384,0.384-1.008,0-1.392l-0.011-0.011c-0.384-0.384-1.008-0.384-1.392,0L12,10.597L9.188,7.785	c-0.384-0.384-1.008-0.384-1.392,0L7.785,7.796c-0.384,0.385-0.384,1.008,0,1.392L10.597,12l-2.812,2.812	c-0.384,0.384-0.384,1.008,0,1.392l0.011,0.011c0.384,0.384,1.008,0.384,1.392,0L12,13.403l2.812,2.812	c0.384,0.384,1.008,0.384,1.392,0l0.011-0.011c0.384-0.384,0.384-1.008,0-1.392L13.403,12z"/></svg>